<svg xmlns="http://www.w3.org/2000/svg" width="21.749" height="18.9" viewBox="0 0 21.749 18.9"><defs><style>.a{fill:#fff;}</style></defs><g transform="translate(-12.149 -9.168)"><g transform="translate(12.149 9.167)"><path class="a" d="M59.919,675.851h3.149c.231,0,.419-.13.419-.292l0-5.067c0-.162-.188-.292-.419-.292H59.919c-.231,0-.419.13-.419.292v5.067C59.5,675.721,59.688,675.851,59.919,675.851Z" transform="translate(-59.497 -659.12)"/><path class="a" d="M236.019,574.3h3.149a.436.436,0,0,0,.419-.451v-7.8a.436.436,0,0,0-.419-.451h-3.149a.436.436,0,0,0-.419.451v7.8A.436.436,0,0,0,236.019,574.3Z" transform="translate(-230.158 -557.542)"/><path class="a" d="M422.419,484.957h3.149c.231,0,.419-.084.419-.407V474.007c0-.324-.188-.407-.419-.407h-3.149c-.231,0-.419.084-.419.407v10.542C422,484.873,422.188,484.957,422.419,484.957Z" transform="translate(-410.801 -468.2)"/><path class="a" d="M634.219,337.992h3.149c.231,0,.419-.124.419-.6V321.837c0-.477-.188-.6-.419-.6h-3.149c-.231,0-.419.124-.419.6v15.554C633.8,337.869,633.988,337.992,634.219,337.992Z" transform="translate(-616.057 -321.236)"/><path class="a" d="M80.752,897.4H59.8c-.22,0-.4.118-.4.269v.719c0,.147.177.269.4.269H80.752c.22,0,.4-.118.4-.269v-.719C81.149,897.521,80.972,897.4,80.752,897.4Z" transform="translate(-59.4 -879.757)"/></g></g></svg>