<svg xmlns="http://www.w3.org/2000/svg" width="28.688" height="23.965" viewBox="0 0 28.688 23.965"><defs><style>.a{fill:#fff;}</style></defs><path class="a" d="M-8204.295,2013.965l0,0a14.3,14.3,0,0,1-3.705-9.618A14.362,14.362,0,0,1-8193.656,1990a14.36,14.36,0,0,1,14.343,14.345,14.328,14.328,0,0,1-3.6,9.5,7.971,7.971,0,0,0-3.083-1.972,20.352,20.352,0,0,0-7.559-1.58,20.387,20.387,0,0,0-7.562,1.58,7.754,7.754,0,0,0-3.18,2.093Zm10.743-18.052a5.462,5.462,0,0,0-4.029,1.714,5.637,5.637,0,0,0-1.682,4.065,5.508,5.508,0,0,0,1.682,4.03,5.513,5.513,0,0,0,4.029,1.681,5.528,5.528,0,0,0,4.033-1.681,5.506,5.506,0,0,0,1.678-4.03,5.626,5.626,0,0,0-1.678-4.065A5.476,5.476,0,0,0-8193.552,1995.913Z" transform="translate(8208.002 -1990)"/></svg>