<svg xmlns="http://www.w3.org/2000/svg" width="25.867" height="18.389" viewBox="0 0 25.867 18.389"><defs><style>.a{fill:#fff;}</style></defs><g transform="translate(0 0.001)"><path class="a" d="M428.193,373.151q-6.883,0-13.766,0-5.563,0-11.127.02v1.38c.171.011.342.032.513.032q9.609,0,19.219,0c2.045,0,4.09-.021,6.135-.032v-1.38C428.842,373.164,428.517,373.151,428.193,373.151Z" transform="translate(-403.3 -356.198)"/><path class="a" d="M500.635,228.3h1.252v-1.5h1.08v-1.1h-3.412v1.1h1.08Z" transform="translate(-488.49 -225.698)"/><path class="a" d="M420.052,251.687a12.437,12.437,0,0,0-12.437,12.437H432.49A12.437,12.437,0,0,0,420.052,251.687Zm-6.938,5.753a10,10,0,0,0-2.661,4.631l-1.129-.346a10.532,10.532,0,0,1,8.14-7.984l.356,1.182A10,10,0,0,0,413.115,257.44Z" transform="translate(-407.119 -248.699)"/></g></svg>