<svg xmlns="http://www.w3.org/2000/svg" width="559.457" height="559.461" viewBox="0 0 559.457 559.461"><defs><style>.a{fill:#a8bf54;}.b{fill:#425b8c;}.c{fill:#344655;}.d{fill:#031a6b;}.e{fill:#1f70c1;}</style></defs><path class="a" d="M-1464.2,4058.115a278.392,278.392,0,0,1-51.392,161.625l-98.579-57.711h-.014a165.482,165.482,0,0,0,36.491-103.914,165.608,165.608,0,0,0-47.187-116.009l73.355-87.04A278.929,278.929,0,0,1-1464.2,4058.115Z" transform="translate(2023.657 -3778.38)"/><path class="b" d="M-1479.8,4127.45a279.376,279.376,0,0,1-228.33,118.1v-113.5a165.874,165.874,0,0,0,129.737-62.316h.014Z" transform="translate(1987.866 -3686.086)"/><path class="c" d="M-1624.024,4199.391v113.494c-154.489,0-279.736-125.233-279.736-279.723a278.576,278.576,0,0,1,27.012-120.055l98.565,57.71v.015a165.674,165.674,0,0,0-12.083,62.33A166.237,166.237,0,0,0-1624.024,4199.391Z" transform="translate(1903.76 -3753.427)"/><path class="d" d="M-1786.305,4018.828l-98.565-57.712c44.928-94.418,141.2-159.68,252.724-159.68v113.493A166.3,166.3,0,0,0-1786.305,4018.828Z" transform="translate(1911.881 -3801.436)"/><path class="e" d="M-1515.733,3878.123l-73.355,87.04a165.639,165.639,0,0,0-119.042-50.233V3801.436A278.745,278.745,0,0,1-1515.733,3878.123Z" transform="translate(1987.866 -3801.436)"/></svg>