<svg xmlns="http://www.w3.org/2000/svg" width="122.605" height="174.381" viewBox="0 0 122.605 174.381"><defs><style>.a{fill:#fced00;}</style></defs><g transform="translate(-155.5 -10)"><path class="a" d="M214.552,10h4.341c11.191,1.068,21.066,10.248,22.222,21.546,1.69,11.547-6.085,23.45-17.258,26.688a24.6,24.6,0,0,1-27.08-9.27c-6.565-8.861-6.049-22.116,1.281-30.371C202.151,13.647,208.272,10.872,214.552,10ZM191.387,67.611c6.583-6.992,16.974-3.914,25.425-4.555,8.451.534,18.753-2.26,25.318,4.679,10.106,9.91,19.963,20.087,30.069,30.015a25.027,25.027,0,0,1,5.907,8.167v1.761c-.836,6.174-8.594,10.195-13.629,5.907-7.722-6.779-14.447-14.607-21.9-21.671-.053,6.263-.036,12.526-.036,18.806q-25.914,0-51.829,0c0-6.245.018-12.49-.036-18.735-6.316,6.245-12.472,12.7-18.771,19-2.509,2.473-5.782,5.017-9.572,4.163-3.327-.374-5.444-3.185-6.832-5.978v-3.381a24.538,24.538,0,0,1,5.889-8.167C171.5,87.734,181.281,77.5,191.387,67.611ZM173.9,137.463c5.373-5.854,11.209-11.262,16.8-16.9,6.548,6.441,13.006,12.971,19.5,19.482-4.733,4.822-9.554,9.59-14.323,14.376,4.555,4.644,9.323,9.092,13.807,13.807,2.366,2.473,4.626,5.747,3.719,9.341-.552,3.4-3.505,5.444-6.37,6.814h-4.092c-4.644-2.349-7.918-6.494-11.458-10.177-5.462-5.889-11.191-11.529-16.6-17.472C170.054,151.661,168.915,142.8,173.9,137.463Zm49,2.6c6.494-6.53,12.971-13.059,19.536-19.5,5.427,5.462,11.067,10.746,16.351,16.387,4.8,4.733,4.662,12.793.818,18.059-3.985,5.071-8.86,9.359-13.166,14.145-5.32,5.142-9.661,11.512-16.209,15.212h-4.163c-5.444-1.655-8.665-8.629-4.911-13.362,4.822-6.032,10.8-11.013,16.12-16.6C232.451,149.633,227.683,144.847,222.9,140.061Z"/></g></svg>