<svg xmlns="http://www.w3.org/2000/svg" width="150.557" height="150.564" viewBox="0 0 150.557 150.564">
  <g id="Group_3096" data-name="Group 3096" transform="translate(0 0.004)">
    <path id="Path_1" data-name="Path 1" d="M-1581.64,3909.71a74.918,74.918,0,0,1-13.83,43.5L-1622,3937.68h0a44.536,44.536,0,0,0,9.82-27.965,44.567,44.567,0,0,0-12.7-31.219l19.741-23.423a75.063,75.063,0,0,1,23.5,54.637Z" transform="translate(1732.196 -3834.43)" fill="#ffdf00"/>
    <path id="Path_2" data-name="Path 2" d="M-1646.68,4085.27a75.184,75.184,0,0,1-61.446,31.781v-30.543a44.639,44.639,0,0,0,34.914-16.77h0Z" transform="translate(1783.41 -3966.491)" fill="#73c48f"/>
    <path id="Path_3" data-name="Path 3" d="M-1828.48,3990.15v30.542a75.279,75.279,0,0,1-75.28-75.278,74.963,74.963,0,0,1,7.269-32.307l26.525,15.531h0a44.591,44.591,0,0,0-3.252,16.774,44.737,44.737,0,0,0,44.739,44.739Z" transform="translate(1903.76 -3870.135)" fill="#343741"/>
    <path id="Path_4" data-name="Path 4" d="M-1858.34,3859.94l-26.525-15.531a75.283,75.283,0,0,1,68.011-42.972v30.542a44.754,44.754,0,0,0-41.487,27.964Z" transform="translate(1892.139 -3801.436)" fill="#29712a"/>
    <path id="Path_5" data-name="Path 5" d="M-1656.35,3822.07l-19.741,23.423a44.576,44.576,0,0,0-32.036-13.519v-30.542a75.014,75.014,0,0,1,51.777,20.638Z" transform="translate(1783.41 -3801.436)" fill="#3cb14a"/>
  </g>
</svg>
