<svg xmlns="http://www.w3.org/2000/svg" width="150.016" height="166.057" viewBox="0 0 150.016 166.057"><defs><style>.a{fill:#fced00;}</style></defs><g transform="translate(0 0)"><path class="a" d="M385.3,10.509A15.571,15.571,0,0,0,387,40.987c10.712,1.661,20.059-8.6,17.323-19.049C402.137,13.5,393.477,8.294,385.3,10.509Z" transform="translate(-320.049 -9.998)"/><path class="a" d="M59.716,218.61A42.307,42.307,0,0,0,57.34,233.98a41.8,41.8,0,0,0,2.247,14.979,68.778,68.778,0,0,0,7.2,14A74.667,74.667,0,0,0,79.092,275.5c1.434,1.042,2.7,2.02,2.833,2.116s-.554,5.406-1.53,11.821S78.6,301.318,78.6,301.579a3.16,3.16,0,0,0,.944,1.466l.944.944h28.362l.879-.749c.813-.685.944-1.271,1.889-6.936l1.042-6.154,1.269.032c.717,0,3.289.195,5.7.424s6.154.358,8.3.325l3.875-.066,1.01,5.763c.912,5.373,1.042,5.861,1.889,6.578l.912.781h14c9.411,0,14.23-.13,14.686-.358a3.143,3.143,0,0,0,1.074-1.367c.358-.912.227-2.183-1.01-10.323-.781-5.08-1.335-9.345-1.173-9.475.13-.13,1.335-.847,2.67-1.628a67.23,67.23,0,0,0,15.662-12.244c2.964-3.126,3.191-3.289,5.666-4.1a63.823,63.823,0,0,1,6.381-1.661c5.08-1.108,7.132-1.922,9.054-3.647,3.516-3.158,4.753-7.75,4.721-17.551,0-6.741-.293-9.281-1.5-12.732-1.432-4.233-3.809-6.317-9.052-7.978l-3.094-.944-.586-1.89a62.64,62.64,0,0,0-6.674-12.764,76.062,76.062,0,0,0-6.024-7.034l-3.841-3.972,5.925-12.146c3.257-6.708,5.893-12.536,5.893-12.927a2.089,2.089,0,0,0-.586-1.335c-1.466-1.367-7.1-3.06-12.015-3.614a22.994,22.994,0,0,0-7.164.034c-7.652.847-14.784,4.558-21.328,10.973l-3.419,3.387-3.126-.522a92.615,92.615,0,0,0-25.952-.358C99.085,180.09,67.934,192.494,59.716,218.61Zm79.126-29.436a40.751,40.751,0,0,1,4.136.879,3.334,3.334,0,0,1,1.433,5.536c-1.106,1.106-1.857,1.172-5.829.456a78.328,78.328,0,0,0-24.194,0c-4.006.717-4.755.651-5.861-.456a3.289,3.289,0,0,1,1.14-5.405,67.113,67.113,0,0,1,8.987-1.6A167.97,167.97,0,0,1,138.842,189.174Zm33.735,19.244A7.21,7.21,0,0,1,176,213.5a7.094,7.094,0,0,1-3.972,7.913c-6.154,3.06-12.863-3.321-10.03-9.574a7.114,7.114,0,0,1,4.851-4.265A8.42,8.42,0,0,1,172.577,208.418Z" transform="translate(-57.34 -137.931)"/></g></svg>