<svg xmlns="http://www.w3.org/2000/svg" width="143.613" height="176.842" viewBox="0 0 143.613 176.842"><defs><style>.a{fill:#fced00;}</style></defs><g transform="translate(-102.076 -10)"><g transform="translate(102.077 10)"><path class="a" d="M291.062,18.292l-8.292,8.292,19.622,19.622L321.98,65.794l19.588-19.588,19.622-19.622L352.9,18.292,344.609,10H299.354Z" transform="translate(-250.164 -10)"/><path class="a" d="M134.788,249.731a69.472,69.472,0,0,0-11.746,9.535A70.876,70.876,0,0,0,105.7,332.019a71.806,71.806,0,0,0,137.769-40.244,72.819,72.819,0,0,0-24.114-37.449c-2.936-2.418-8.844-6.46-9.948-6.8-.586-.173-2.073,1.14-8.775,7.842l-8.084,8.05,3.73,1.934a48.553,48.553,0,0,1,20.487,19.171,49.514,49.514,0,0,1,2,46.43,51.554,51.554,0,0,1-23.525,23.525,57.971,57.971,0,0,1-12.264,4.042,66.759,66.759,0,0,1-18.171,0,50.749,50.749,0,0,1-39.865-39.865,66.754,66.754,0,0,1,0-18.171,50.24,50.24,0,0,1,27.465-35.652l2.867-1.348-8.05-8.05c-4.421-4.421-8.221-8.05-8.429-8.05A27.855,27.855,0,0,0,134.788,249.731Z" transform="translate(-102.077 -204.544)"/></g></g></svg>