<svg xmlns="http://www.w3.org/2000/svg" width="213" height="204.475" viewBox="0 0 213 204.475"><defs><style>.a{fill:#a8bf54;}</style></defs><g transform="translate(-10.02 -29.621)"><g transform="translate(10.02 29.621)"><path class="a" d="M35.365,30.075C18.4,33.65,8.086,51.325,13.533,67.543A30.352,30.352,0,0,0,33.7,86.713a35.774,35.774,0,0,0,14.556.041A28.869,28.869,0,0,0,69.882,58.6c0-5.405-.665-8.151-3.2-13.308A28.529,28.529,0,0,0,49.715,30.905,32.335,32.335,0,0,0,35.365,30.075Z" transform="translate(-11.625 -29.621)"/><path class="a" d="M107.159,163.617a7.822,7.822,0,0,0-3.328,10.937,9.885,9.885,0,0,1,.956,1.913c-.083.041-1.621.874-3.451,1.871a95.819,95.819,0,0,0-32.728,30.357,93.687,93.687,0,0,0-13.682,35.556c-.956,5.655-1.456,18.381-.915,22.747l.333,2.745,39.507-15.138c21.75-8.316,39.716-15.136,39.922-15.136.25,0,3,7.235,6.114,16.136,3.16,8.857,10.313,29.068,15.927,44.913S166,329.544,166,329.753s-30.15.415-77.847.459l-77.888.124-.124,4.034-.124,4.075h213l-.124-4.075-.126-4.034-24-.124-23.954-.083-.832-2.412c-.459-1.289-7.859-22.248-16.468-46.534s-15.636-44.33-15.636-44.58c0-.209.5-.583,1.165-.791,4.117-1.5,78.471-30.065,78.6-30.233.374-.333-6.988-8.816-11.187-12.932a93.425,93.425,0,0,0-54.4-25.536c-6.238-.748-19.337-.333-25.2.789a108.666,108.666,0,0,0-11.561,2.745c-.459.209-.706-.083-.915-1.124-.874-4.034-3.825-6.57-7.735-6.57A9.034,9.034,0,0,0,107.159,163.617Zm51.774,12.019a85.712,85.712,0,0,1,38.175,16.177c4.906,3.743,11.478,9.813,11.019,10.231-.374.374-34.308,13.391-34.432,13.223,0-.083-.832-1.456-1.745-3.036A80.924,80.924,0,0,0,133.358,178.3a30.355,30.355,0,0,1-3.658-1.663c-.374-.291,3.575-1.08,8.607-1.663A118.925,118.925,0,0,1,158.933,175.637Zm-58.345,13.6c-1,4.2-1.33,9.107-1.33,20.294,0,12.726.415,17.8,2.328,28.444a32.451,32.451,0,0,1,.665,4.658c-.25.25-40.337,15.553-40.463,15.471-.25-.25.706-10.189,1.289-13.556A84.064,84.064,0,0,1,97.261,190.4C100.464,188.069,100.88,187.945,100.588,189.234Z" transform="translate(-10.02 -133.971)"/></g></g></svg>